# Blender 4.4.3
# www.blender.org
mtllib sonrobot.mtl
g Cylinder_Cylinder.002
v 0.000000 4.502841 -0.712991
v 0.000000 4.582087 1.850533
v 0.195090 4.483629 -0.712397
v 0.195090 4.562875 1.851127
v 0.382683 4.426733 -0.710638
v 0.382683 4.505979 1.852886
v 0.555570 4.334339 -0.707782
v 0.555570 4.413585 1.855742
v 0.707107 4.209997 -0.703938
v 0.707107 4.289243 1.859586
v 0.831470 4.058486 -0.699255
v 0.831470 4.137732 1.864269
v 0.923880 3.885629 -0.693911
v 0.923880 3.964875 1.869613
v 0.980785 3.698067 -0.688113
v 0.980785 3.777313 1.875411
v 1.000000 3.503010 -0.682083
v 1.000000 3.582256 1.881441
v 0.980785 3.307953 -0.676054
v 0.980785 3.387199 1.887470
v 0.923880 3.120392 -0.670256
v 0.923880 3.199637 1.893268
v 0.831470 2.947534 -0.664912
v 0.831470 3.026780 1.898612
v 0.707107 2.796023 -0.660228
v 0.707107 2.875269 1.903296
v 0.555570 2.671681 -0.656385
v 0.555570 2.750927 1.907139
v 0.382683 2.579287 -0.653529
v 0.382683 2.658533 1.909996
v 0.195090 2.522391 -0.651770
v 0.195090 2.601637 1.911754
v 0.000000 2.503180 -0.651176
v 0.000000 2.582426 1.912348
v -0.195090 2.522391 -0.651770
v -0.195090 2.601637 1.911754
v -0.382683 2.579287 -0.653529
v -0.382683 2.658533 1.909996
v -0.555570 2.671681 -0.656385
v -0.555570 2.750927 1.907139
v -0.707107 2.796023 -0.660228
v -0.707107 2.875269 1.903296
v -0.831470 2.947534 -0.664912
v -0.831470 3.026780 1.898612
v -0.923880 3.120392 -0.670256
v -0.923880 3.199637 1.893268
v -0.980785 3.307953 -0.676054
v -0.980785 3.387199 1.887470
v -1.000000 3.503010 -0.682083
v -1.000000 3.582256 1.881441
v -0.980785 3.698067 -0.688113
v -0.980785 3.777313 1.875411
v -0.923880 3.885629 -0.693911
v -0.923880 3.964875 1.869613
v -0.831470 4.058486 -0.699255
v -0.831470 4.137732 1.864269
v -0.707107 4.209997 -0.703938
v -0.707107 4.289243 1.859586
v -0.555570 4.334339 -0.707782
v -0.555570 4.413585 1.855742
v -0.382683 4.426733 -0.710638
v -0.382683 4.505979 1.852886
v -0.195090 4.483629 -0.712397
v -0.195090 4.562875 1.851127
vn 0.0980 0.9947 -0.0307
vn 0.2904 0.9565 -0.0296
vn 0.4715 0.8814 -0.0272
vn 0.6345 0.7725 -0.0239
vn 0.7731 0.6340 -0.0196
vn 0.8820 0.4711 -0.0146
vn 0.9570 0.2901 -0.0090
vn 0.9952 0.0979 -0.0030
vn 0.9952 -0.0979 0.0030
vn 0.9570 -0.2901 0.0090
vn 0.8820 -0.4711 0.0146
vn 0.7731 -0.6340 0.0196
vn 0.6345 -0.7725 0.0239
vn 0.4715 -0.8814 0.0272
vn 0.2904 -0.9565 0.0296
vn 0.0980 -0.9947 0.0307
vn -0.0980 -0.9947 0.0307
vn -0.2904 -0.9565 0.0296
vn -0.4715 -0.8814 0.0272
vn -0.6345 -0.7725 0.0239
vn -0.7731 -0.6340 0.0196
vn -0.8820 -0.4711 0.0146
vn -0.9570 -0.2901 0.0090
vn -0.9952 -0.0979 0.0030
vn -0.9952 0.0979 -0.0030
vn -0.9570 0.2901 -0.0090
vn -0.8820 0.4711 -0.0146
vn -0.7731 0.6340 -0.0196
vn -0.6345 0.7725 -0.0239
vn -0.4715 0.8814 -0.0272
vn -0.0000 0.0309 0.9995
vn -0.2904 0.9565 -0.0296
vn -0.0981 0.9947 -0.0307
vn -0.0000 -0.0309 -0.9995
vt 1.000000 0.500000
vt 1.000000 1.000000
vt 0.968750 1.000000
vt 0.968750 0.500000
vt 0.937500 1.000000
vt 0.937500 0.500000
vt 0.906250 1.000000
vt 0.906250 0.500000
vt 0.875000 1.000000
vt 0.875000 0.500000
vt 0.843750 1.000000
vt 0.843750 0.500000
vt 0.812500 1.000000
vt 0.812500 0.500000
vt 0.781250 1.000000
vt 0.781250 0.500000
vt 0.750000 1.000000
vt 0.750000 0.500000
vt 0.718750 1.000000
vt 0.718750 0.500000
vt 0.687500 1.000000
vt 0.687500 0.500000
vt 0.656250 1.000000
vt 0.656250 0.500000
vt 0.625000 1.000000
vt 0.625000 0.500000
vt 0.593750 1.000000
vt 0.593750 0.500000
vt 0.562500 1.000000
vt 0.562500 0.500000
vt 0.531250 1.000000
vt 0.531250 0.500000
vt 0.500000 1.000000
vt 0.500000 0.500000
vt 0.468750 1.000000
vt 0.468750 0.500000
vt 0.437500 1.000000
vt 0.437500 0.500000
vt 0.406250 1.000000
vt 0.406250 0.500000
vt 0.375000 1.000000
vt 0.375000 0.500000
vt 0.343750 1.000000
vt 0.343750 0.500000
vt 0.312500 1.000000
vt 0.312500 0.500000
vt 0.281250 1.000000
vt 0.281250 0.500000
vt 0.250000 1.000000
vt 0.250000 0.500000
vt 0.218750 1.000000
vt 0.218750 0.500000
vt 0.187500 1.000000
vt 0.187500 0.500000
vt 0.156250 1.000000
vt 0.156250 0.500000
vt 0.125000 1.000000
vt 0.125000 0.500000
vt 0.093750 1.000000
vt 0.093750 0.500000
vt 0.062500 1.000000
vt 0.062500 0.500000
vt 0.296822 0.485388
vt 0.250000 0.490000
vt 0.203178 0.485388
vt 0.158156 0.471731
vt 0.116663 0.449553
vt 0.080294 0.419706
vt 0.050447 0.383337
vt 0.028269 0.341844
vt 0.014612 0.296822
vt 0.010000 0.250000
vt 0.014612 0.203178
vt 0.028269 0.158156
vt 0.050447 0.116663
vt 0.080294 0.080294
vt 0.116663 0.050447
vt 0.158156 0.028269
vt 0.203178 0.014612
vt 0.250000 0.010000
vt 0.296822 0.014612
vt 0.341844 0.028269
vt 0.383337 0.050447
vt 0.419706 0.080294
vt 0.449553 0.116663
vt 0.471731 0.158156
vt 0.485388 0.203178
vt 0.490000 0.250000
vt 0.485388 0.296822
vt 0.471731 0.341844
vt 0.449553 0.383337
vt 0.419706 0.419706
vt 0.383337 0.449553
vt 0.341844 0.471731
vt 0.031250 1.000000
vt 0.031250 0.500000
vt 0.000000 1.000000
vt 0.000000 0.500000
vt 0.750000 0.490000
vt 0.796822 0.485388
vt 0.841844 0.471731
vt 0.883337 0.449553
vt 0.919706 0.419706
vt 0.949553 0.383337
vt 0.971731 0.341844
vt 0.985388 0.296822
vt 0.990000 0.250000
vt 0.985388 0.203178
vt 0.971731 0.158156
vt 0.949553 0.116663
vt 0.919706 0.080294
vt 0.883337 0.050447
vt 0.841844 0.028269
vt 0.796822 0.014612
vt 0.750000 0.010000
vt 0.703178 0.014612
vt 0.658156 0.028269
vt 0.616663 0.050447
vt 0.580294 0.080294
vt 0.550447 0.116663
vt 0.528269 0.158156
vt 0.514612 0.203178
vt 0.510000 0.250000
vt 0.514612 0.296822
vt 0.528269 0.341844
vt 0.550447 0.383337
vt 0.580294 0.419706
vt 0.616663 0.449553
vt 0.658156 0.471731
vt 0.703178 0.485388
s 1
usemtl Material.002
f 1/1/1 2/2/1 4/3/1 3/4/1
f 3/4/2 4/3/2 6/5/2 5/6/2
f 5/6/3 6/5/3 8/7/3 7/8/3
f 7/8/4 8/7/4 10/9/4 9/10/4
f 9/10/5 10/9/5 12/11/5 11/12/5
f 11/12/6 12/11/6 14/13/6 13/14/6
f 13/14/7 14/13/7 16/15/7 15/16/7
f 15/16/8 16/15/8 18/17/8 17/18/8
f 17/18/9 18/17/9 20/19/9 19/20/9
f 19/20/10 20/19/10 22/21/10 21/22/10
f 21/22/11 22/21/11 24/23/11 23/24/11
f 23/24/12 24/23/12 26/25/12 25/26/12
f 25/26/13 26/25/13 28/27/13 27/28/13
f 27/28/14 28/27/14 30/29/14 29/30/14
f 29/30/15 30/29/15 32/31/15 31/32/15
f 31/32/16 32/31/16 34/33/16 33/34/16
f 33/34/17 34/33/17 36/35/17 35/36/17
f 35/36/18 36/35/18 38/37/18 37/38/18
f 37/38/19 38/37/19 40/39/19 39/40/19
f 39/40/20 40/39/20 42/41/20 41/42/20
f 41/42/21 42/41/21 44/43/21 43/44/21
f 43/44/22 44/43/22 46/45/22 45/46/22
f 45/46/23 46/45/23 48/47/23 47/48/23
f 47/48/24 48/47/24 50/49/24 49/50/24
f 49/50/25 50/49/25 52/51/25 51/52/25
f 51/52/26 52/51/26 54/53/26 53/54/26
f 53/54/27 54/53/27 56/55/27 55/56/27
f 55/56/28 56/55/28 58/57/28 57/58/28
f 57/58/29 58/57/29 60/59/29 59/60/29
f 59/60/30 60/59/30 62/61/30 61/62/30
f 4/63/31 2/64/31 64/65/31 62/66/31 60/67/31 58/68/31 56/69/31 54/70/31 52/71/31 50/72/31 48/73/31 46/74/31 44/75/31 42/76/31 40/77/31 38/78/31 36/79/31 34/80/31 32/81/31 30/82/31 28/83/31 26/84/31 24/85/31 22/86/31 20/87/31 18/88/31 16/89/31 14/90/31 12/91/31 10/92/31 8/93/31 6/94/31
f 61/62/32 62/61/32 64/95/32 63/96/32
f 63/96/33 64/95/33 2/97/33 1/98/33
f 1/99/34 3/100/34 5/101/34 7/102/34 9/103/34 11/104/34 13/105/34 15/106/34 17/107/34 19/108/34 21/109/34 23/110/34 25/111/34 27/112/34 29/113/34 31/114/34 33/115/34 35/116/34 37/117/34 39/118/34 41/119/34 43/120/34 45/121/34 47/122/34 49/123/34 51/124/34 53/125/34 55/126/34 57/127/34 59/128/34 61/129/34 63/130/34
g ertorobot1_ertorobot1.001
v 0.809354 6.033204 2.947990
v 0.809354 6.033204 2.947990
v 0.809354 6.033204 2.947990
v 1.081596 6.033204 2.938520
v 1.081596 6.033204 2.938520
v 1.081596 6.033204 2.938520
v 0.809354 6.298432 2.947990
v 0.809354 6.298432 2.947990
v 0.809354 6.298432 2.947990
v 1.081596 6.298432 2.938520
v 1.081596 6.298432 2.938520
v 1.081596 6.298432 2.938520
v 0.800133 6.033204 2.682924
v 0.800133 6.033204 2.682924
v 0.800133 6.033204 2.682924
v 1.072376 6.033204 2.673454
v 1.072376 6.033204 2.673454
v 1.072376 6.033204 2.673454
v 0.800133 6.298432 2.682924
v 0.800133 6.298432 2.682924
v 0.800133 6.298432 2.682924
v 1.072375 6.298432 2.673454
v 1.072375 6.298432 2.673454
v 1.072375 6.298432 2.673454
v -2.502531 0.641271 5.580587
v -2.502531 0.641271 5.580587
v -2.502531 0.641271 5.580587
v -2.502531 4.743784 5.580586
v -2.502531 4.743784 5.580586
v -2.502531 4.743784 5.580586
v 1.827368 0.641272 5.429966
v 1.827368 0.641272 5.429966
v 1.827368 0.641272 5.429966
v -2.645156 0.641271 1.480555
v -2.645156 0.641271 1.480555
v -2.645156 0.641271 1.480555
v -2.645156 4.743784 1.480555
v -2.645156 4.743784 1.480555
v -2.645156 4.743784 1.480555
v 1.684743 0.641272 1.329933
v 1.684743 0.641272 1.329933
v 1.684743 0.641272 1.329933
v 1.684743 4.743785 1.329933
v 1.684743 4.743785 1.329933
v 1.684743 4.743785 1.329933
v 1.827368 4.743785 5.429965
v 1.827368 4.743785 5.429965
v 1.827368 4.743785 5.429965
v 0.847399 6.033205 4.041675
v 0.847399 6.033205 4.041675
v 0.847399 6.033205 4.041675
v 0.847399 6.298432 4.041675
v 0.847399 6.298432 4.041675
v 0.847399 6.298432 4.041675
v 1.119641 6.033205 4.032205
v 1.119641 6.033205 4.032205
v 1.119641 6.033205 4.032205
v 0.838178 6.033205 3.776608
v 0.838178 6.033205 3.776608
v 0.838178 6.033205 3.776608
v 0.838178 6.298432 3.776608
v 0.838178 6.298432 3.776608
v 0.838178 6.298432 3.776608
v 1.110421 6.033205 3.767138
v 1.110421 6.033205 3.767138
v 1.110421 6.033205 3.767138
v 1.110421 6.298432 3.767138
v 1.110421 6.298432 3.767138
v 1.110421 6.298432 3.767138
v 1.119641 6.298432 4.032205
v 1.119641 6.298432 4.032205
v 1.119641 6.298432 4.032205
v -1.586565 4.756989 4.650756
v -1.586565 4.756989 4.650756
v -1.586565 4.756989 4.650756
v -1.586565 7.064653 4.650756
v -1.586565 7.064653 4.650756
v -1.586565 7.064653 4.650756
v 0.849004 4.756989 4.566031
v 0.849004 4.756989 4.566031
v 0.849004 4.756989 4.566031
v -1.666791 4.756989 2.344487
v -1.666791 4.756989 2.344487
v -1.666791 4.756989 2.344487
v -1.666792 7.064653 2.344487
v -1.666792 7.064653 2.344487
v -1.666792 7.064653 2.344487
v 0.768777 4.756989 2.259763
v 0.768777 4.756989 2.259763
v 0.768777 4.756989 2.259763
v 0.768777 7.064653 2.259763
v 0.768777 7.064653 2.259763
v 0.768777 7.064653 2.259763
v 0.849003 7.064653 4.566031
v 0.849003 7.064653 4.566031
v 0.849003 7.064653 4.566031
v 0.448702 4.327636 6.022400
v 0.448702 4.327636 6.022400
v 0.448702 4.327636 6.022400
v 0.448702 4.327636 6.022400
v 0.448702 4.327636 6.022400
v 0.448702 4.327636 6.022400
v 0.448702 4.327636 6.022400
v 0.448702 4.327636 6.022400
v 0.448702 4.327636 6.022400
v 0.448702 4.327636 6.022400
v 0.448702 4.327636 6.022400
v 0.448702 4.327636 6.022400
v 0.448702 4.327636 6.022400
v -0.663324 4.327636 6.061083
v -0.663324 4.327636 6.061083
v -0.663324 4.327636 6.061083
v -0.663324 4.327636 6.061083
v -0.663324 4.327636 6.061083
v -0.663324 4.327636 6.061083
v -0.663324 4.327636 6.061083
v -0.663324 4.327636 6.061083
v -0.663324 4.327636 6.061083
v -0.663324 4.327636 6.061083
v -0.663324 4.327636 6.061083
v -0.663324 4.327636 6.061083
v -0.663324 4.327636 6.061083
v -0.663324 4.327636 6.061083
v -0.663324 4.327636 6.061083
v -0.663324 4.327636 6.061083
v -0.663324 4.327636 6.061083
vn 0.0348 -0.0000 0.9994
vn -0.0000 1.0000 -0.0000
vn -0.0348 -0.0000 -0.9994
vn -0.0000 -1.0000 -0.0000
vn -0.9994 -0.0000 0.0348
vn 0.9994 -0.0000 -0.0348
vt 0.411659 0.146638
vt 0.588341 0.146638
vt 1.222094 -1.577941
vt -0.222094 -1.577941
vt 1.222094 -0.133753
vt -0.222094 -0.133753
vt 1.222094 1.310434
vt -0.222094 1.310434
vt 1.222094 2.754622
vt -0.222094 2.754622
vt -1.666281 -0.133753
vt -1.666281 1.310434
vt 2.666281 -0.133753
vt 2.666281 1.310434
vt -0.175062 -0.054407
vt 1.130419 -0.054407
vt 1.130419 1.251074
vt -0.175062 1.251074
vt -0.191427 -0.066427
vt 1.191427 -0.066427
vt 1.191427 1.316427
vt -0.191427 1.316427
s 1
usemtl Material.003
f 67/131/35 70/132/35 76/133/35
f 67/131/35 76/133/35 73/134/35
f 71/134/36 74/133/36 86/135/36
f 71/134/36 86/135/36 83/136/36
f 85/136/37 88/135/37 82/137/37
f 85/136/37 82/137/37 79/138/37
f 77/138/38 80/137/38 68/139/38
f 77/138/38 68/139/38 65/140/38
f 72/141/39 84/136/39 78/138/39
f 72/141/39 78/138/39 66/142/39
f 87/135/40 75/143/40 69/144/40
f 87/135/40 69/144/40 81/137/40
f 93/141/39 102/136/39 99/138/39
f 93/141/39 99/138/39 90/142/39
f 91/145/35 97/146/35 112/147/35
f 91/145/35 112/147/35 94/148/35
f 98/138/38 104/137/38 95/139/38
f 98/138/38 95/139/38 89/140/38
f 103/149/37 109/150/37 106/151/37
f 103/149/37 106/151/37 100/152/37
f 108/135/40 111/143/40 96/144/40
f 108/135/40 96/144/40 105/137/40
f 92/134/36 110/133/36 107/135/36
f 92/134/36 107/135/36 101/136/36
usemtl Material.002
f 117/141/39 126/136/39 123/138/39
f 117/141/39 123/138/39 114/142/39
f 115/131/35 121/132/35 136/133/35
f 115/131/35 136/133/35 118/134/35
f 122/138/38 128/137/38 119/139/38
f 122/138/38 119/139/38 113/140/38
f 127/136/37 133/135/37 130/137/37
f 127/136/37 130/137/37 124/138/37
f 132/135/40 135/143/40 120/144/40
f 132/135/40 120/144/40 129/137/40
f 116/134/36 134/133/36 131/135/36
f 116/134/36 131/135/36 125/136/36
f 141/141/39 150/136/39 147/138/39
f 141/141/39 147/138/39 138/142/39
f 139/131/35 145/132/35 160/133/35
f 139/131/35 160/133/35 142/134/35
f 146/138/38 152/137/38 143/139/38
f 146/138/38 143/139/38 137/140/38
f 151/136/37 157/135/37 154/137/37
f 151/136/37 154/137/37 148/138/37
f 156/135/40 159/143/40 144/144/40
f 156/135/40 144/144/40 153/137/40
f 140/134/36 158/133/36 155/135/36
f 140/134/36 155/135/36 149/136/36
g Cube_Cube
v -0.679778 -0.894546 4.871461
v -0.679778 0.894546 4.871461
v -0.679778 -0.894546 4.316005
v -0.679778 0.894546 4.316005
v 0.679778 -0.894546 4.871461
v 0.679778 0.894546 4.871461
v 0.679778 -0.894546 4.316005
v 0.679778 0.894546 4.316005
vn -1.0000 -0.0000 -0.0000
vn -0.0000 -0.0000 -1.0000
vn 1.0000 -0.0000 -0.0000
vn -0.0000 -0.0000 1.0000
vn -0.0000 -1.0000 -0.0000
vn -0.0000 1.0000 -0.0000
vt 0.375000 0.000000
vt 0.625000 0.000000
vt 0.625000 0.250000
vt 0.375000 0.250000
vt 0.625000 0.500000
vt 0.375000 0.500000
vt 0.625000 0.750000
vt 0.375000 0.750000
vt 0.625000 1.000000
vt 0.375000 1.000000
vt 0.125000 0.500000
vt 0.125000 0.750000
vt 0.875000 0.500000
vt 0.875000 0.750000
s 0
f 191/153/41 192/154/41 194/155/41 193/156/41
f 193/156/42 194/155/42 198/157/42 197/158/42
f 197/158/43 198/157/43 196/159/43 195/160/43
f 195/160/44 196/159/44 192/161/44 191/162/44
f 193/163/45 197/158/45 195/160/45 191/164/45
f 198/157/46 194/165/46 192/166/46 196/159/46
g Cube.001_Cube.001
v -0.679778 -0.894546 2.838011
v -0.679778 0.894546 2.838011
v -0.679778 -0.894546 2.282555
v -0.679778 0.894546 2.282555
v 0.679778 -0.894546 2.838011
v 0.679778 0.894546 2.838011
v 0.679778 -0.894546 2.282555
v 0.679778 0.894546 2.282555
vn -1.0000 -0.0000 -0.0000
vn -0.0000 -0.0000 -1.0000
vn 1.0000 -0.0000 -0.0000
vn -0.0000 -0.0000 1.0000
vn -0.0000 -1.0000 -0.0000
vn -0.0000 1.0000 -0.0000
vt 0.375000 0.000000
vt 0.625000 0.000000
vt 0.625000 0.250000
vt 0.375000 0.250000
vt 0.625000 0.500000
vt 0.375000 0.500000
vt 0.625000 0.750000
vt 0.375000 0.750000
vt 0.625000 1.000000
vt 0.375000 1.000000
vt 0.125000 0.500000
vt 0.125000 0.750000
vt 0.875000 0.500000
vt 0.875000 0.750000
s 0
f 199/167/47 200/168/47 202/169/47 201/170/47
f 201/170/48 202/169/48 206/171/48 205/172/48
f 205/172/49 206/171/49 204/173/49 203/174/49
f 203/174/50 204/173/50 200/175/50 199/176/50
f 201/177/51 205/172/51 203/174/51 199/178/51
f 206/171/52 202/179/52 200/180/52 204/173/52
g Cylinder.001_Cylinder.003
v -0.303396 0.832335 5.477577
v -0.303396 4.871168 5.477577
v -0.108306 0.832335 5.488116
v -0.108306 4.871168 5.488116
v 0.079288 0.832335 5.519329
v 0.079288 4.871168 5.519329
v 0.252174 0.832335 5.570015
v 0.252174 4.871168 5.570015
v 0.403711 0.832335 5.638228
v 0.403711 4.871168 5.638228
v 0.528074 0.832335 5.721345
v 0.528074 4.871168 5.721345
v 0.620484 0.832335 5.816173
v 0.620484 4.871168 5.816173
v 0.677389 0.832335 5.919067
v 0.677389 4.871168 5.919067
v 0.696604 0.832335 6.026073
v 0.696604 4.871168 6.026073
v 0.677389 0.832335 6.133079
v 0.677389 4.871168 6.133079
v 0.620484 0.832335 6.235973
v 0.620484 4.871168 6.235973
v 0.528074 0.832335 6.330801
v 0.528074 4.871168 6.330801
v 0.403711 0.832335 6.413918
v 0.403711 4.871168 6.413918
v 0.252174 0.832335 6.482131
v 0.252174 4.871168 6.482131
v 0.079288 0.832335 6.532817
v 0.079288 4.871168 6.532817
v -0.108306 0.832335 6.564030
v -0.108306 4.871168 6.564030
v -0.303396 0.832335 6.574569
v -0.303396 4.871168 6.574569
v -0.498486 0.832335 6.564030
v -0.498486 4.871168 6.564030
v -0.686079 0.832335 6.532817
v -0.686079 4.871168 6.532817
v -0.858966 0.832335 6.482131
v -0.858966 4.871168 6.482131
v -1.010503 0.832335 6.413918
v -1.010503 4.871168 6.413918
v -1.134866 0.832335 6.330801
v -1.134866 4.871168 6.330801
v -1.227275 0.832335 6.235973
v -1.227275 4.871168 6.235973
v -1.284181 0.832335 6.133079
v -1.284181 4.871168 6.133079
v -1.303396 0.832335 6.026073
v -1.303396 4.871168 6.026073
v -1.284181 0.832335 5.919067
v -1.284181 4.871168 5.919067
v -1.227275 0.832335 5.816173
v -1.227275 4.871168 5.816173
v -1.134866 0.832335 5.721345
v -1.134866 4.871168 5.721345
v -1.010503 0.832335 5.638228
v -1.010503 4.871168 5.638228
v -0.858966 0.832335 5.570015
v -0.858966 4.871168 5.570015
v -0.686079 0.832335 5.519329
v -0.686079 4.871168 5.519329
v -0.498486 0.832335 5.488116
v -0.498486 4.871168 5.488116
vn 0.0539 -0.0000 -0.9985
vn 0.1641 -0.0000 -0.9864
vn 0.2813 -0.0000 -0.9596
vn 0.4105 -0.0000 -0.9119
vn 0.5557 -0.0000 -0.8314
vn 0.7162 -0.0000 -0.6979
vn 0.8751 -0.0000 -0.4840
vn 0.9843 -0.0000 -0.1767
vn 0.9843 -0.0000 0.1767
vn 0.8751 -0.0000 0.4840
vn 0.7162 -0.0000 0.6979
vn 0.5557 -0.0000 0.8314
vn 0.4105 -0.0000 0.9119
vn 0.2813 -0.0000 0.9596
vn 0.1641 -0.0000 0.9864
vn 0.0539 -0.0000 0.9985
vn -0.0539 -0.0000 0.9985
vn -0.1641 -0.0000 0.9864
vn -0.2813 -0.0000 0.9596
vn -0.4105 -0.0000 0.9119
vn -0.5557 -0.0000 0.8314
vn -0.7162 -0.0000 0.6979
vn -0.8751 -0.0000 0.4840
vn -0.9843 -0.0000 0.1767
vn -0.9843 -0.0000 -0.1767
vn -0.8751 -0.0000 -0.4840
vn -0.7162 -0.0000 -0.6979
vn -0.5557 -0.0000 -0.8314
vn -0.4105 -0.0000 -0.9119
vn -0.2813 -0.0000 -0.9596
vn -0.0000 1.0000 -0.0000
vn -0.1641 -0.0000 -0.9864
vn -0.0539 -0.0000 -0.9985
vn -0.0000 -1.0000 -0.0000
vt 1.000000 0.500000
vt 1.000000 1.000000
vt 0.968750 1.000000
vt 0.968750 0.500000
vt 0.937500 1.000000
vt 0.937500 0.500000
vt 0.906250 1.000000
vt 0.906250 0.500000
vt 0.875000 1.000000
vt 0.875000 0.500000
vt 0.843750 1.000000
vt 0.843750 0.500000
vt 0.812500 1.000000
vt 0.812500 0.500000
vt 0.781250 1.000000
vt 0.781250 0.500000
vt 0.750000 1.000000
vt 0.750000 0.500000
vt 0.718750 1.000000
vt 0.718750 0.500000
vt 0.687500 1.000000
vt 0.687500 0.500000
vt 0.656250 1.000000
vt 0.656250 0.500000
vt 0.625000 1.000000
vt 0.625000 0.500000
vt 0.593750 1.000000
vt 0.593750 0.500000
vt 0.562500 1.000000
vt 0.562500 0.500000
vt 0.531250 1.000000
vt 0.531250 0.500000
vt 0.500000 1.000000
vt 0.500000 0.500000
vt 0.468750 1.000000
vt 0.468750 0.500000
vt 0.437500 1.000000
vt 0.437500 0.500000
vt 0.406250 1.000000
vt 0.406250 0.500000
vt 0.375000 1.000000
vt 0.375000 0.500000
vt 0.343750 1.000000
vt 0.343750 0.500000
vt 0.312500 1.000000
vt 0.312500 0.500000
vt 0.281250 1.000000
vt 0.281250 0.500000
vt 0.250000 1.000000
vt 0.250000 0.500000
vt 0.218750 1.000000
vt 0.218750 0.500000
vt 0.187500 1.000000
vt 0.187500 0.500000
vt 0.156250 1.000000
vt 0.156250 0.500000
vt 0.125000 1.000000
vt 0.125000 0.500000
vt 0.093750 1.000000
vt 0.093750 0.500000
vt 0.062500 1.000000
vt 0.062500 0.500000
vt 0.296822 0.485388
vt 0.250000 0.490000
vt 0.203178 0.485388
vt 0.158156 0.471731
vt 0.116663 0.449553
vt 0.080294 0.419706
vt 0.050447 0.383337
vt 0.028269 0.341844
vt 0.014612 0.296822
vt 0.010000 0.250000
vt 0.014612 0.203178
vt 0.028269 0.158156
vt 0.050447 0.116663
vt 0.080294 0.080294
vt 0.116663 0.050447
vt 0.158156 0.028269
vt 0.203178 0.014612
vt 0.250000 0.010000
vt 0.296822 0.014612
vt 0.341844 0.028269
vt 0.383337 0.050447
vt 0.419706 0.080294
vt 0.449553 0.116663
vt 0.471731 0.158156
vt 0.485388 0.203178
vt 0.490000 0.250000
vt 0.485388 0.296822
vt 0.471731 0.341844
vt 0.449553 0.383337
vt 0.419706 0.419706
vt 0.383337 0.449553
vt 0.341844 0.471731
vt 0.031250 1.000000
vt 0.031250 0.500000
vt 0.000000 1.000000
vt 0.000000 0.500000
vt 0.750000 0.490000
vt 0.796822 0.485388
vt 0.841844 0.471731
vt 0.883337 0.449553
vt 0.919706 0.419706
vt 0.949553 0.383337
vt 0.971731 0.341844
vt 0.985388 0.296822
vt 0.990000 0.250000
vt 0.985388 0.203178
vt 0.971731 0.158156
vt 0.949553 0.116663
vt 0.919706 0.080294
vt 0.883337 0.050447
vt 0.841844 0.028269
vt 0.796822 0.014612
vt 0.750000 0.010000
vt 0.703178 0.014612
vt 0.658156 0.028269
vt 0.616663 0.050447
vt 0.580294 0.080294
vt 0.550447 0.116663
vt 0.528269 0.158156
vt 0.514612 0.203178
vt 0.510000 0.250000
vt 0.514612 0.296822
vt 0.528269 0.341844
vt 0.550447 0.383337
vt 0.580294 0.419706
vt 0.616663 0.449553
vt 0.658156 0.471731
vt 0.703178 0.485388
s 0
f 207/181/53 208/182/53 210/183/53 209/184/53
f 209/184/54 210/183/54 212/185/54 211/186/54
f 211/186/55 212/185/55 214/187/55 213/188/55
f 213/188/56 214/187/56 216/189/56 215/190/56
f 215/190/57 216/189/57 218/191/57 217/192/57
f 217/192/58 218/191/58 220/193/58 219/194/58
f 219/194/59 220/193/59 222/195/59 221/196/59
f 221/196/60 222/195/60 224/197/60 223/198/60
f 223/198/61 224/197/61 226/199/61 225/200/61
f 225/200/62 226/199/62 228/201/62 227/202/62
f 227/202/63 228/201/63 230/203/63 229/204/63
f 229/204/64 230/203/64 232/205/64 231/206/64
f 231/206/65 232/205/65 234/207/65 233/208/65
f 233/208/66 234/207/66 236/209/66 235/210/66
f 235/210/67 236/209/67 238/211/67 237/212/67
f 237/212/68 238/211/68 240/213/68 239/214/68
f 239/214/69 240/213/69 242/215/69 241/216/69
f 241/216/70 242/215/70 244/217/70 243/218/70
f 243/218/71 244/217/71 246/219/71 245/220/71
f 245/220/72 246/219/72 248/221/72 247/222/72
f 247/222/73 248/221/73 250/223/73 249/224/73
f 249/224/74 250/223/74 252/225/74 251/226/74
f 251/226/75 252/225/75 254/227/75 253/228/75
f 253/228/76 254/227/76 256/229/76 255/230/76
f 255/230/77 256/229/77 258/231/77 257/232/77
f 257/232/78 258/231/78 260/233/78 259/234/78
f 259/234/79 260/233/79 262/235/79 261/236/79
f 261/236/80 262/235/80 264/237/80 263/238/80
f 263/238/81 264/237/81 266/239/81 265/240/81
f 265/240/82 266/239/82 268/241/82 267/242/82
f 210/243/83 208/244/83 270/245/83 268/246/83 266/247/83 264/248/83 262/249/83 260/250/83 258/251/83 256/252/83 254/253/83 252/254/83 250/255/83 248/256/83 246/257/83 244/258/83 242/259/83 240/260/83 238/261/83 236/262/83 234/263/83 232/264/83 230/265/83 228/266/83 226/267/83 224/268/83 222/269/83 220/270/83 218/271/83 216/272/83 214/273/83 212/274/83
f 267/242/84 268/241/84 270/275/84 269/276/84
f 269/276/85 270/275/85 208/277/85 207/278/85
f 207/279/86 209/280/86 211/281/86 213/282/86 215/283/86 217/284/86 219/285/86 221/286/86 223/287/86 225/288/86 227/289/86 229/290/86 231/291/86 233/292/86 235/293/86 237/294/86 239/295/86 241/296/86 243/297/86 245/298/86 247/299/86 249/300/86 251/301/86 253/302/86 255/303/86 257/304/86 259/305/86 261/306/86 263/307/86 265/308/86 267/309/86 269/310/86
